<svg width="390" height="148" viewBox="0 0 390 148" fill="none" xmlns="http://www.w3.org/2000/svg">
<path d="M334.815 147.885L376.265 54.8114H389.323L348.784 147.885H334.815ZM350.302 118.125L320.087 54.8114H336.03L361.386 110.989L350.302 118.125Z" fill="black"/>
<path d="M275.762 119.188C269.891 119.188 264.526 117.923 259.668 115.392C254.91 112.862 251.114 109.167 248.28 104.309C245.547 99.3489 244.181 93.3262 244.181 86.2407C244.181 79.2564 245.648 73.2337 248.584 68.1726C251.519 63.0103 255.416 59.0627 260.275 56.3297C265.235 53.5967 270.65 52.2303 276.521 52.2303C282.392 52.2303 287.352 53.5967 291.401 56.3297C295.449 58.9615 298.537 62.0994 300.662 65.7433L299.751 68.1726L301.118 54.8114H314.175V117.67H300.055V101.272L301.573 104.916C301.168 105.928 300.257 107.244 298.84 108.864C297.524 110.382 295.702 111.951 293.374 113.57C291.147 115.19 288.566 116.557 285.631 117.67C282.695 118.682 279.406 119.188 275.762 119.188ZM279.558 107.497C283.1 107.497 286.289 106.839 289.123 105.523C291.957 104.208 294.285 102.386 296.107 100.057C298.031 97.6281 299.346 94.7433 300.055 91.403V79.1046C299.245 76.0679 297.828 73.4362 295.804 71.2093C293.779 68.8812 291.35 67.1098 288.516 65.8952C285.681 64.5793 282.544 63.9213 279.102 63.9213C275.357 63.9213 271.915 64.8323 268.777 66.6543C265.64 68.4763 263.109 71.0068 261.186 74.2459C259.364 77.485 258.453 81.2808 258.453 85.6334C258.453 89.6822 259.414 93.3768 261.338 96.7171C263.261 100.057 265.842 102.689 269.081 104.612C272.32 106.536 275.812 107.497 279.558 107.497Z" fill="black"/>
<path d="M184.175 117.67V0.151825H198.295V117.67H184.175ZM213.479 75.9161L242.327 117.67H225.777L204.065 83.8114L213.479 75.9161ZM193.892 97.6281L192.526 84.1151L230.636 53.445L239.29 60.8847L193.892 97.6281Z" fill="black"/>
<path d="M149.067 118.885C144.614 118.885 140.261 118.126 136.01 116.607C131.86 114.988 128.418 112.609 125.685 109.471L131.607 101.272C134.238 103.803 136.921 105.726 139.654 107.042C142.488 108.256 145.271 108.864 148.004 108.864C150.029 108.864 151.901 108.611 153.622 108.105C155.343 107.598 156.71 106.789 157.722 105.675C158.835 104.461 159.392 102.841 159.392 100.817C159.392 98.5898 158.633 96.8184 157.114 95.5025C155.697 94.1866 153.825 93.1238 151.497 92.314C149.27 91.5043 146.891 90.7451 144.36 90.0366C139.198 88.3158 135.251 85.9371 132.518 82.9004C129.785 79.8638 128.418 76.1692 128.418 71.8167C128.418 68.4764 129.228 65.3891 130.847 62.5549C132.568 59.6195 135.048 57.2408 138.287 55.4188C141.628 53.5968 145.727 52.6858 150.586 52.6858C154.938 52.6858 158.835 53.2425 162.277 54.356C165.718 55.3682 168.957 57.089 171.994 59.5183L166.376 68.3245C164.554 66.4013 162.378 64.9842 159.847 64.0732C157.317 63.1622 155.039 62.6561 153.015 62.5549C151.294 62.4537 149.624 62.7068 148.004 63.3141C146.486 63.9214 145.221 64.7818 144.209 65.8952C143.196 67.0087 142.69 68.3245 142.69 69.8429C142.69 71.9685 143.399 73.6893 144.816 75.0052C146.233 76.321 148.055 77.3839 150.282 78.1936C152.61 78.9022 154.888 79.6614 157.114 80.4711C160.252 81.3821 163.036 82.5968 165.465 84.1151C167.894 85.6334 169.818 87.506 171.235 89.7329C172.753 91.9598 173.512 94.7434 173.512 98.0837C173.512 101.829 172.601 105.321 170.779 108.56C169.059 111.698 166.376 114.229 162.732 116.152C159.189 117.974 154.634 118.885 149.067 118.885Z" fill="black"/>
<path d="M102.014 54.8114H116.134V117.67H102.014V54.8114ZM100.951 32.0366C100.951 29.8097 101.811 27.9371 103.532 26.4188C105.354 24.9005 107.328 24.1413 109.453 24.1413C111.579 24.1413 113.452 24.9005 115.071 26.4188C116.792 27.9371 117.652 29.8097 117.652 32.0366C117.652 34.3647 116.792 36.2879 115.071 37.8062C113.452 39.2233 111.579 39.9319 109.453 39.9319C107.328 39.9319 105.354 39.1727 103.532 37.6544C101.811 36.136 100.951 34.2634 100.951 32.0366Z" fill="black"/>
<path d="M66.64 54.8115L68.0065 73.0314L67.2474 70.6021C68.8669 66.7557 71.195 63.5166 74.2317 60.8848C77.3695 58.1518 80.6086 56.0768 83.9489 54.6597C87.3904 53.1414 90.3765 52.3822 92.907 52.3822L92.1479 66.3508C87.3904 66.0471 83.1898 66.9581 79.5458 69.0837C76.003 71.2094 73.1688 74.0436 71.0432 77.5864C69.0187 81.1291 68.0065 84.9249 68.0065 88.9738V117.67H54.038V54.8115H66.64Z" fill="black"/>
<path d="M10.7801 117.67V67.4135H0V54.8115H10.7801V28.2408C10.7801 19.1309 12.8045 12.1466 16.8534 7.28795C21.0035 2.42931 27.0768 0 35.0732 0C37.1989 0 39.527 0.303664 42.0575 0.910991C44.6893 1.51832 46.9668 2.53054 48.89 3.94764L42.9685 14.1204C42.0575 13.2094 41.0453 12.6021 39.9319 12.2984C38.8184 11.8935 37.705 11.6911 36.5916 11.6911C32.8464 11.6911 29.9616 12.9564 27.9371 15.4869C25.9127 18.0174 24.9005 22.3193 24.9005 28.3926V54.8115H44.7905V67.4135H24.9005V117.67H10.7801Z" fill="black"/>
</svg>
